<?xml version="1.0" encoding="UTF-8" standalone="no"?>
<!-- Created with Inkscape (http://www.inkscape.org/) -->

<svg
   width="10.910289mm"
   height="10.177628mm"
   viewBox="0 0 10.910289 10.177628"
   version="1.1"
   id="svg1"
   xml:space="preserve"
   inkscape:version="1.4.2 (ebf0e940d0, 2025-05-08)"
   sodipodi:docname="favicon.svg"
   xmlns:inkscape="http://www.inkscape.org/namespaces/inkscape"
   xmlns:sodipodi="http://sodipodi.sourceforge.net/DTD/sodipodi-0.dtd"
   xmlns="http://www.w3.org/2000/svg"
   xmlns:svg="http://www.w3.org/2000/svg"><sodipodi:namedview
     id="namedview1"
     pagecolor="#ffffff"
     bordercolor="#000000"
     borderopacity="0.25"
     inkscape:showpageshadow="2"
     inkscape:pageopacity="0.0"
     inkscape:pagecheckerboard="0"
     inkscape:deskcolor="#d1d1d1"
     inkscape:document-units="px"
     inkscape:zoom="7.5130072"
     inkscape:cx="24.424308"
     inkscape:cy="20.697438"
     inkscape:window-width="1161"
     inkscape:window-height="688"
     inkscape:window-x="0"
     inkscape:window-y="0"
     inkscape:window-maximized="1"
     inkscape:current-layer="layer1"
     showguides="false" /><defs
     id="defs1" /><g
     inkscape:label="Layer 1"
     inkscape:groupmode="layer"
     id="layer1"
     transform="translate(-2.667897,-0.68092513)"><rect
       style="fill:#0751cf;fill-opacity:1;stroke:none;stroke-width:0.499283;stroke-dasharray:none;stroke-opacity:1"
       id="rect2"
       width="10.910289"
       height="10.177629"
       x="2.667897"
       y="0.68092507"
       ry="1.5072936" /><path
       style="fill:none;stroke:#ffffff;stroke-width:0.417095;stroke-dasharray:none;stroke-opacity:1"
       d="m 7.766188,2.8273425 h -2.7307588 -0.06628 l -0.2651222,4.2154432 0.019884,0.079537 0.039769,0.066281 0.099421,0.1557595 0.056338,0.072908 0.072909,0.1292472 0.00332,0.036453 c 0,0 0.00994,0.039769 -0.00663,0.049711 -0.016569,0.00994 -0.096107,0.043081 -0.096107,0.043081 l -0.1060499,0.069595 -0.7986808,0.4772203 0.00663,0.053024 0.2626558,0.4549333 0.2941009,0.00239 0.1723292,-0.1126789 0.1193051,-0.019883 0.5435005,-0.3512868 0.092792,-0.039767 h 0.172322 l 0.092794,-0.039769 0.132561,-0.013257 0.2054698,-0.1325609 0.1922137,-0.1590731 c 0,0 0.099421,0.013256 0.1259331,0.013256 0.026512,0 0.1126768,0.1193053 0.1126768,0.1193053 l 0.059653,-0.079522 0.013256,-0.099421 V 7.6260548 L 6.7454665,7.7188468 6.9111677,7.6393108 7.0437289,7.5200058 7.2757108,7.4404688 7.3883878,7.1886031 7.501065,7.1355791 7.540833,7.2217431 7.560718,7.3808159 7.7131633,7.3675599 8.0445657,7.2349986 8.4422491,7.3808157 8.5284131,7.268139 8.7338831,7.281395 8.9393525,7.241626 9.2508715,7.22837 9.522622,7.181975 9.7148352,7.12895 9.7877462,7.248255 9.9998436,7.228371 10.172174,7.135579 l 0.165702,-0.053024 0.152444,0.00663 0.09279,-0.1657011 0.05303,-0.1325615 0.132561,0.1988414 0.212098,-0.033139 0.0065,-0.5435007 0.13919,0.4507079 0.172328,0.033141 0.09942,-0.079537 c 0,0 0.01988,0.00663 0.06628,-0.046395 0.04639,-0.053023 0.07954,-0.092792 0.07954,-0.092792 l 0.06628,0.079537 0.07292,0.039769 h 0.145816 l 0.112676,0.00663 0.0464,0.046396 c 0,0 0.06628,0.00663 0.0928,0.00663 0.02652,0 0.05303,-0.1657018 0.05303,-0.1657018 l 0.01325,-0.1922156 -0.119304,-0.1259333 0.06628,-0.1259323 0.178956,-0.00663 V 6.0220662 l -0.01322,-0.1988418 -0.08617,-3.0091369 -3.1284418,-0.00663 c 0,0 -0.1922139,0.053024 -0.2120978,0.079537 C 8.8133484,2.9135055 8.60788,2.8074565 8.60788,2.8074565 l -0.4775352,0.013254 -0.065949,0.1855855 -0.1855856,0.046396 z"
       id="path2" /></g></svg>
